# xmcd
#
# Track frame offsets: 
#        150
#        17632
#        33028
#        51164
#        67538
#        82042
#        98269
#        112319
#        125390
#        142240
#        156859
#        172870
#
# Disc length: 2513 seconds
#
# Revision: 0
# Processed by: cddbd v1.5.2PL0 Copyright (c) Steve Scherf et al.
# Submitted via: ExactAudioCopy v0.99pb5
#
DISCID=9009cf0c
DTITLE=The Dime Store Poets - Electric Rhymes
DYEAR=2005
DGENRE=Alt. Country
TTITLE0=Every Day of My Life
TTITLE1=Chocolate Candy Days
TTITLE2=Love Is Like
TTITLE3=Fade Away
TTITLE4=Thick Skin
TTITLE5=Human Beings
TTITLE6=Daddy Don't Dress Like a Woman
TTITLE7=Stained Glass Windows
TTITLE8=If It Gets You By
TTITLE9=Sweet Things
TTITLE10=Jenny With Strawberry Hair
TTITLE11=Put My Heart Back
EXTD=
EXTT0=
EXTT1=
EXTT2=
EXTT3=
EXTT4=
EXTT5=
EXTT6=
EXTT7=
EXTT8=
EXTT9=
EXTT10=
EXTT11=
PLAYORDER=
